<mxfile host="65bd71144e">
    <diagram id="oRTDr8enGg4dGtn7-55L" name="Page-1">
        <mxGraphModel dx="1300" dy="718" grid="1" gridSize="10" guides="1" tooltips="1" connect="1" arrows="1" fold="1" page="1" pageScale="1" pageWidth="850" pageHeight="1100" background="#ffffff" math="0" shadow="0">
            <root>
                <mxCell id="0"/>
                <mxCell id="1" parent="0"/>
                <mxCell id="27" value="" style="rounded=0;whiteSpace=wrap;html=1;" parent="1" vertex="1">
                    <mxGeometry x="20" y="134" width="470" height="330" as="geometry"/>
                </mxCell>
                <mxCell id="23" value="" style="rounded=0;whiteSpace=wrap;html=1;" parent="1" vertex="1">
                    <mxGeometry x="20" y="33" width="470" height="80" as="geometry"/>
                </mxCell>
                <mxCell id="9" value="Ui_MYAPP" style="swimlane;fontStyle=0;childLayout=stackLayout;horizontal=1;startSize=30;horizontalStack=0;resizeParent=1;resizeParentMax=0;resizeLast=0;collapsible=1;marginBottom=0;whiteSpace=wrap;html=1;" parent="1" vertex="1">
                    <mxGeometry x="30" y="154" width="140" height="90" as="geometry"/>
                </mxCell>
                <mxCell id="10" value="func setupUi" style="text;strokeColor=none;fillColor=none;align=left;verticalAlign=middle;spacingLeft=4;spacingRight=4;overflow=hidden;points=[[0,0.5],[1,0.5]];portConstraint=eastwest;rotatable=0;whiteSpace=wrap;html=1;" parent="9" vertex="1">
                    <mxGeometry y="30" width="140" height="30" as="geometry"/>
                </mxCell>
                <mxCell id="11" value="func retranslateUi" style="text;strokeColor=none;fillColor=none;align=left;verticalAlign=middle;spacingLeft=4;spacingRight=4;overflow=hidden;points=[[0,0.5],[1,0.5]];portConstraint=eastwest;rotatable=0;whiteSpace=wrap;html=1;" parent="9" vertex="1">
                    <mxGeometry y="60" width="140" height="30" as="geometry"/>
                </mxCell>
                <mxCell id="17" style="edgeStyle=none;html=1;exitX=0.5;exitY=1;exitDx=0;exitDy=0;entryX=0.5;entryY=0;entryDx=0;entryDy=0;" parent="1" source="13" target="9" edge="1">
                    <mxGeometry relative="1" as="geometry"/>
                </mxCell>
                <mxCell id="13" value="object" style="swimlane;fontStyle=0;childLayout=stackLayout;horizontal=1;startSize=30;horizontalStack=0;resizeParent=1;resizeParentMax=0;resizeLast=0;collapsible=1;marginBottom=0;whiteSpace=wrap;html=1;" parent="1" vertex="1">
                    <mxGeometry x="30" y="70" width="140" height="30" as="geometry"/>
                </mxCell>
                <mxCell id="18" value="MYAPP" style="swimlane;fontStyle=0;childLayout=stackLayout;horizontal=1;startSize=30;horizontalStack=0;resizeParent=1;resizeParentMax=0;resizeLast=0;collapsible=1;marginBottom=0;whiteSpace=wrap;html=1;" parent="1" vertex="1">
                    <mxGeometry x="210" y="154" width="260" height="300" as="geometry"/>
                </mxCell>
                <mxCell id="19" value="&lt;p style=&quot;margin-bottom: 0cm; line-height: 30%;&quot; class=&quot;MsoNormal&quot;&gt;func __init __&lt;br&gt;&lt;/p&gt;&lt;p style=&quot;margin-bottom: 0cm; line-height: 30%;&quot; class=&quot;MsoNormal&quot;&gt;func _FullSceenButtonAction&lt;/p&gt;&lt;p style=&quot;margin-bottom: 0cm; line-height: 30%;&quot; class=&quot;MsoNormal&quot;&gt;func _RebootButtonAction&lt;/p&gt;&lt;p style=&quot;margin-bottom: 0cm; line-height: 30%;&quot; class=&quot;MsoNormal&quot;&gt;func _ClearAllNotification&lt;/p&gt;&lt;p style=&quot;margin-bottom: 0cm; line-height: 30%;&quot; class=&quot;MsoNormal&quot;&gt;func _ClearNotification&lt;/p&gt;&lt;p style=&quot;margin-bottom: 0cm; line-height: 30%;&quot; class=&quot;MsoNormal&quot;&gt;func _SetNotification&lt;/p&gt;&lt;p style=&quot;margin-bottom: 0cm; line-height: 30%;&quot; class=&quot;MsoNormal&quot;&gt;func _StartStopCameraButtonAction&lt;/p&gt;&lt;p style=&quot;margin-bottom: 0cm; line-height: 30%;&quot; class=&quot;MsoNormal&quot;&gt;func _StartStopPeopleDetection&lt;/p&gt;&lt;p style=&quot;margin-bottom: 0cm; line-height: 30%;&quot; class=&quot;MsoNormal&quot;&gt;func _PeopleDetection&lt;/p&gt;&lt;p style=&quot;margin-bottom: 0cm; line-height: 30%;&quot; class=&quot;MsoNormal&quot;&gt;func _CameraStreaming&lt;/p&gt;&lt;p style=&quot;margin-bottom: 0cm; line-height: 30%;&quot; class=&quot;MsoNormal&quot;&gt;func _StartStopServerSync&lt;/p&gt;&lt;p style=&quot;margin-bottom: 0cm; line-height: 30%;&quot; class=&quot;MsoNormal&quot;&gt;func _ServerStreaming&lt;/p&gt;&lt;p style=&quot;margin-bottom: 0cm; line-height: 30%;&quot; class=&quot;MsoNormal&quot;&gt;func _SetResetFireWaring&lt;/p&gt;&lt;p style=&quot;margin-bottom: 0cm; line-height: 30%;&quot; class=&quot;MsoNormal&quot;&gt;func _FireWaring&lt;/p&gt;&lt;p style=&quot;margin-bottom: 0cm; line-height: 30%;&quot; class=&quot;MsoNormal&quot;&gt;func _RefreshButtonAction&lt;/p&gt;&lt;p style=&quot;margin-bottom: 0cm; line-height: 30%;&quot; class=&quot;MsoNormal&quot;&gt;func _SensorReading&lt;/p&gt;&lt;p style=&quot;margin-bottom: 0cm; line-height: 30%;&quot; class=&quot;MsoNormal&quot;&gt;&lt;br&gt;&lt;/p&gt;" style="text;strokeColor=none;fillColor=none;align=left;verticalAlign=middle;spacingLeft=4;spacingRight=4;overflow=hidden;points=[[0,0.5],[1,0.5]];portConstraint=eastwest;rotatable=0;whiteSpace=wrap;html=1;" parent="18" vertex="1">
                    <mxGeometry y="30" width="260" height="270" as="geometry"/>
                </mxCell>
                <mxCell id="25" style="edgeStyle=none;html=1;entryX=0.5;entryY=0;entryDx=0;entryDy=0;" parent="1" source="22" target="18" edge="1">
                    <mxGeometry relative="1" as="geometry"/>
                </mxCell>
                <mxCell id="22" value="QWidget" style="swimlane;fontStyle=0;childLayout=stackLayout;horizontal=1;startSize=30;horizontalStack=0;resizeParent=1;resizeParentMax=0;resizeLast=0;collapsible=1;marginBottom=0;whiteSpace=wrap;html=1;" parent="1" vertex="1">
                    <mxGeometry x="270" y="70" width="140" height="30" as="geometry"/>
                </mxCell>
                <mxCell id="26" value="modules from&amp;nbsp;PySide6" style="text;html=1;strokeColor=none;fillColor=none;align=center;verticalAlign=middle;whiteSpace=wrap;rounded=0;" parent="1" vertex="1">
                    <mxGeometry x="10" y="30" width="150" height="30" as="geometry"/>
                </mxCell>
                <mxCell id="28" value="User's defined modules" style="text;html=1;strokeColor=none;fillColor=none;align=center;verticalAlign=middle;whiteSpace=wrap;rounded=0;" parent="1" vertex="1">
                    <mxGeometry x="25" y="434" width="150" height="30" as="geometry"/>
                </mxCell>
                <mxCell id="38" value="&lt;font color=&quot;#000000&quot;&gt;&lt;b&gt;Phân cấp lớp của chương trình chính (quan hệ thừa kế):&lt;/b&gt;&lt;/font&gt;" style="text;html=1;strokeColor=none;fillColor=none;align=left;verticalAlign=middle;whiteSpace=wrap;rounded=0;labelBackgroundColor=none;fontColor=#FFFFFF;movable=1;resizable=1;rotatable=1;deletable=1;editable=1;connectable=1;" parent="1" vertex="1">
                    <mxGeometry x="10" width="560" height="30" as="geometry"/>
                </mxCell>
                <mxCell id="83" value="" style="rounded=0;whiteSpace=wrap;html=1;" parent="1" vertex="1">
                    <mxGeometry x="22" y="696" width="270" height="390" as="geometry"/>
                </mxCell>
                <mxCell id="84" value="" style="rounded=0;whiteSpace=wrap;html=1;" parent="1" vertex="1">
                    <mxGeometry x="22" y="519" width="270" height="157" as="geometry"/>
                </mxCell>
                <mxCell id="85" value="class Ui_MYAPP" style="swimlane;fontStyle=0;childLayout=stackLayout;horizontal=1;startSize=30;horizontalStack=0;resizeParent=1;resizeParentMax=0;resizeLast=0;collapsible=1;marginBottom=0;whiteSpace=wrap;html=1;" parent="1" vertex="1">
                    <mxGeometry x="37" y="566" width="215" height="90" as="geometry"/>
                </mxCell>
                <mxCell id="86" value="func setupUi" style="text;strokeColor=none;fillColor=none;align=left;verticalAlign=middle;spacingLeft=4;spacingRight=4;overflow=hidden;points=[[0,0.5],[1,0.5]];portConstraint=eastwest;rotatable=0;whiteSpace=wrap;html=1;" parent="85" vertex="1">
                    <mxGeometry y="30" width="215" height="30" as="geometry"/>
                </mxCell>
                <mxCell id="87" value="func retranslateUi" style="text;strokeColor=none;fillColor=none;align=left;verticalAlign=middle;spacingLeft=4;spacingRight=4;overflow=hidden;points=[[0,0.5],[1,0.5]];portConstraint=eastwest;rotatable=0;whiteSpace=wrap;html=1;" parent="85" vertex="1">
                    <mxGeometry y="60" width="215" height="30" as="geometry"/>
                </mxCell>
                <mxCell id="88" value="class&amp;nbsp;MYAPP" style="swimlane;fontStyle=0;childLayout=stackLayout;horizontal=1;startSize=30;horizontalStack=0;resizeParent=1;resizeParentMax=0;resizeLast=0;collapsible=1;marginBottom=0;whiteSpace=wrap;html=1;" parent="1" vertex="1">
                    <mxGeometry x="37" y="741" width="220" height="300" as="geometry"/>
                </mxCell>
                <mxCell id="89" value="&lt;p style=&quot;margin-bottom: 0cm; line-height: 30%;&quot; class=&quot;MsoNormal&quot;&gt;func __init __&lt;br&gt;&lt;/p&gt;&lt;p style=&quot;margin-bottom: 0cm; line-height: 30%;&quot; class=&quot;MsoNormal&quot;&gt;func _FullSceenButtonAction&lt;/p&gt;&lt;p style=&quot;margin-bottom: 0cm; line-height: 30%;&quot; class=&quot;MsoNormal&quot;&gt;func _RebootButtonAction&lt;/p&gt;&lt;p style=&quot;margin-bottom: 0cm; line-height: 30%;&quot; class=&quot;MsoNormal&quot;&gt;func _ClearAllNotification&lt;/p&gt;&lt;p style=&quot;margin-bottom: 0cm; line-height: 30%;&quot; class=&quot;MsoNormal&quot;&gt;func _ClearNotification&lt;/p&gt;&lt;p style=&quot;margin-bottom: 0cm; line-height: 30%;&quot; class=&quot;MsoNormal&quot;&gt;func _SetNotification&lt;/p&gt;&lt;p style=&quot;margin-bottom: 0cm; line-height: 30%;&quot; class=&quot;MsoNormal&quot;&gt;func _StartStopCameraButtonAction&lt;/p&gt;&lt;p style=&quot;margin-bottom: 0cm; line-height: 30%;&quot; class=&quot;MsoNormal&quot;&gt;func _StartStopPeopleDetection&lt;/p&gt;&lt;p style=&quot;margin-bottom: 0cm; line-height: 30%;&quot; class=&quot;MsoNormal&quot;&gt;func _PeopleDetection&lt;/p&gt;&lt;p style=&quot;margin-bottom: 0cm; line-height: 30%;&quot; class=&quot;MsoNormal&quot;&gt;func _CameraStreaming&lt;/p&gt;&lt;p style=&quot;margin-bottom: 0cm; line-height: 30%;&quot; class=&quot;MsoNormal&quot;&gt;func _StartStopServerSync&lt;/p&gt;&lt;p style=&quot;margin-bottom: 0cm; line-height: 30%;&quot; class=&quot;MsoNormal&quot;&gt;func _ServerStreaming&lt;/p&gt;&lt;p style=&quot;margin-bottom: 0cm; line-height: 30%;&quot; class=&quot;MsoNormal&quot;&gt;func _SetResetFireWaring&lt;/p&gt;&lt;p style=&quot;margin-bottom: 0cm; line-height: 30%;&quot; class=&quot;MsoNormal&quot;&gt;func _FireWaring&lt;/p&gt;&lt;p style=&quot;margin-bottom: 0cm; line-height: 30%;&quot; class=&quot;MsoNormal&quot;&gt;func _RefreshButtonAction&lt;/p&gt;&lt;p style=&quot;margin-bottom: 0cm; line-height: 30%;&quot; class=&quot;MsoNormal&quot;&gt;func _SensorReading&lt;/p&gt;&lt;p style=&quot;margin-bottom: 0cm; line-height: 30%;&quot; class=&quot;MsoNormal&quot;&gt;&lt;br&gt;&lt;/p&gt;" style="text;strokeColor=none;fillColor=none;align=left;verticalAlign=middle;spacingLeft=4;spacingRight=4;overflow=hidden;points=[[0,0.5],[1,0.5]];portConstraint=eastwest;rotatable=0;whiteSpace=wrap;html=1;" parent="88" vertex="1">
                    <mxGeometry y="30" width="220" height="270" as="geometry"/>
                </mxCell>
                <mxCell id="90" value="ui_form.py" style="text;html=1;strokeColor=none;fillColor=none;align=left;verticalAlign=middle;whiteSpace=wrap;rounded=0;" parent="1" vertex="1">
                    <mxGeometry x="32" y="526" width="150" height="30" as="geometry"/>
                </mxCell>
                <mxCell id="91" value="&lt;font color=&quot;#000000&quot;&gt;&lt;b&gt;Các tập tin *.py liên quan:&lt;/b&gt;&lt;/font&gt;" style="text;html=1;strokeColor=none;fillColor=none;align=left;verticalAlign=middle;whiteSpace=wrap;rounded=0;labelBackgroundColor=none;fontColor=#FFFFFF;movable=1;resizable=1;rotatable=1;deletable=1;editable=1;connectable=1;" parent="1" vertex="1">
                    <mxGeometry x="20" y="486" width="560" height="30" as="geometry"/>
                </mxCell>
                <mxCell id="92" value="myapp.py" style="text;html=1;strokeColor=none;fillColor=none;align=left;verticalAlign=middle;whiteSpace=wrap;rounded=0;" parent="1" vertex="1">
                    <mxGeometry x="37" y="696" width="150" height="30" as="geometry"/>
                </mxCell>
                <mxCell id="93" value="" style="rounded=0;whiteSpace=wrap;html=1;" parent="1" vertex="1">
                    <mxGeometry x="322" y="519" width="480" height="567" as="geometry"/>
                </mxCell>
                <mxCell id="94" value="class&amp;nbsp;FireWarning" style="swimlane;fontStyle=0;childLayout=stackLayout;horizontal=1;startSize=30;horizontalStack=0;resizeParent=1;resizeParentMax=0;resizeLast=0;collapsible=1;marginBottom=0;whiteSpace=wrap;html=1;" parent="1" vertex="1">
                    <mxGeometry x="337" y="566" width="215" height="120" as="geometry"/>
                </mxCell>
                <mxCell id="95" value="const&amp;nbsp; finished" style="text;strokeColor=none;fillColor=none;align=left;verticalAlign=middle;spacingLeft=4;spacingRight=4;overflow=hidden;points=[[0,0.5],[1,0.5]];portConstraint=eastwest;rotatable=0;whiteSpace=wrap;html=1;" parent="94" vertex="1">
                    <mxGeometry y="30" width="215" height="30" as="geometry"/>
                </mxCell>
                <mxCell id="96" value="func __init__" style="text;strokeColor=none;fillColor=none;align=left;verticalAlign=middle;spacingLeft=4;spacingRight=4;overflow=hidden;points=[[0,0.5],[1,0.5]];portConstraint=eastwest;rotatable=0;whiteSpace=wrap;html=1;" parent="94" vertex="1">
                    <mxGeometry y="60" width="215" height="30" as="geometry"/>
                </mxCell>
                <mxCell id="97" value="func FireWarningAction" style="text;strokeColor=none;fillColor=none;align=left;verticalAlign=middle;spacingLeft=4;spacingRight=4;overflow=hidden;points=[[0,0.5],[1,0.5]];portConstraint=eastwest;rotatable=0;whiteSpace=wrap;html=1;" parent="94" vertex="1">
                    <mxGeometry y="90" width="215" height="30" as="geometry"/>
                </mxCell>
                <mxCell id="98" value="support_functions.py" style="text;html=1;strokeColor=none;fillColor=none;align=left;verticalAlign=middle;whiteSpace=wrap;rounded=0;" parent="1" vertex="1">
                    <mxGeometry x="332" y="526" width="150" height="30" as="geometry"/>
                </mxCell>
                <mxCell id="99" value="class&amp;nbsp;CameraStreaming" style="swimlane;fontStyle=0;childLayout=stackLayout;horizontal=1;startSize=30;horizontalStack=0;resizeParent=1;resizeParentMax=0;resizeLast=0;collapsible=1;marginBottom=0;whiteSpace=wrap;html=1;" parent="1" vertex="1">
                    <mxGeometry x="337" y="706" width="215" height="120" as="geometry"/>
                </mxCell>
                <mxCell id="100" value="const&amp;nbsp; finished" style="text;strokeColor=none;fillColor=none;align=left;verticalAlign=middle;spacingLeft=4;spacingRight=4;overflow=hidden;points=[[0,0.5],[1,0.5]];portConstraint=eastwest;rotatable=0;whiteSpace=wrap;html=1;" parent="99" vertex="1">
                    <mxGeometry y="30" width="215" height="30" as="geometry"/>
                </mxCell>
                <mxCell id="101" value="func __init__" style="text;strokeColor=none;fillColor=none;align=left;verticalAlign=middle;spacingLeft=4;spacingRight=4;overflow=hidden;points=[[0,0.5],[1,0.5]];portConstraint=eastwest;rotatable=0;whiteSpace=wrap;html=1;" parent="99" vertex="1">
                    <mxGeometry y="60" width="215" height="30" as="geometry"/>
                </mxCell>
                <mxCell id="102" value="func UpdateData" style="text;strokeColor=none;fillColor=none;align=left;verticalAlign=middle;spacingLeft=4;spacingRight=4;overflow=hidden;points=[[0,0.5],[1,0.5]];portConstraint=eastwest;rotatable=0;whiteSpace=wrap;html=1;" parent="99" vertex="1">
                    <mxGeometry y="90" width="215" height="30" as="geometry"/>
                </mxCell>
                <mxCell id="103" value="class&amp;nbsp;ServertStreaming" style="swimlane;fontStyle=0;childLayout=stackLayout;horizontal=1;startSize=30;horizontalStack=0;resizeParent=1;resizeParentMax=0;resizeLast=0;collapsible=1;marginBottom=0;whiteSpace=wrap;html=1;" parent="1" vertex="1">
                    <mxGeometry x="337" y="846" width="215" height="120" as="geometry"/>
                </mxCell>
                <mxCell id="104" value="const&amp;nbsp; finished" style="text;strokeColor=none;fillColor=none;align=left;verticalAlign=middle;spacingLeft=4;spacingRight=4;overflow=hidden;points=[[0,0.5],[1,0.5]];portConstraint=eastwest;rotatable=0;whiteSpace=wrap;html=1;" parent="103" vertex="1">
                    <mxGeometry y="30" width="215" height="30" as="geometry"/>
                </mxCell>
                <mxCell id="105" value="func __init__" style="text;strokeColor=none;fillColor=none;align=left;verticalAlign=middle;spacingLeft=4;spacingRight=4;overflow=hidden;points=[[0,0.5],[1,0.5]];portConstraint=eastwest;rotatable=0;whiteSpace=wrap;html=1;" parent="103" vertex="1">
                    <mxGeometry y="60" width="215" height="30" as="geometry"/>
                </mxCell>
                <mxCell id="106" value="func UpdateData" style="text;strokeColor=none;fillColor=none;align=left;verticalAlign=middle;spacingLeft=4;spacingRight=4;overflow=hidden;points=[[0,0.5],[1,0.5]];portConstraint=eastwest;rotatable=0;whiteSpace=wrap;html=1;" parent="103" vertex="1">
                    <mxGeometry y="90" width="215" height="30" as="geometry"/>
                </mxCell>
                <mxCell id="107" value="class SensorReading" style="swimlane;fontStyle=0;childLayout=stackLayout;horizontal=1;startSize=30;horizontalStack=0;resizeParent=1;resizeParentMax=0;resizeLast=0;collapsible=1;marginBottom=0;whiteSpace=wrap;html=1;" parent="1" vertex="1">
                    <mxGeometry x="572" y="566" width="220" height="120" as="geometry"/>
                </mxCell>
                <mxCell id="108" value="const&amp;nbsp; finished" style="text;strokeColor=none;fillColor=none;align=left;verticalAlign=middle;spacingLeft=4;spacingRight=4;overflow=hidden;points=[[0,0.5],[1,0.5]];portConstraint=eastwest;rotatable=0;whiteSpace=wrap;html=1;" parent="107" vertex="1">
                    <mxGeometry y="30" width="220" height="30" as="geometry"/>
                </mxCell>
                <mxCell id="109" value="func __init__" style="text;strokeColor=none;fillColor=none;align=left;verticalAlign=middle;spacingLeft=4;spacingRight=4;overflow=hidden;points=[[0,0.5],[1,0.5]];portConstraint=eastwest;rotatable=0;whiteSpace=wrap;html=1;" parent="107" vertex="1">
                    <mxGeometry y="60" width="220" height="30" as="geometry"/>
                </mxCell>
                <mxCell id="110" value="func UpdateData" style="text;strokeColor=none;fillColor=none;align=left;verticalAlign=middle;spacingLeft=4;spacingRight=4;overflow=hidden;points=[[0,0.5],[1,0.5]];portConstraint=eastwest;rotatable=0;whiteSpace=wrap;html=1;" parent="107" vertex="1">
                    <mxGeometry y="90" width="220" height="30" as="geometry"/>
                </mxCell>
                <mxCell id="111" value="&amp;nbsp;func FullScreenButtonAction" style="rounded=0;whiteSpace=wrap;html=1;labelBackgroundColor=none;fontColor=#000000;align=left;" parent="1" vertex="1">
                    <mxGeometry x="572" y="706" width="220" height="30" as="geometry"/>
                </mxCell>
                <mxCell id="112" value="&amp;nbsp;func RebootButtonAction" style="rounded=0;whiteSpace=wrap;html=1;labelBackgroundColor=none;fontColor=#000000;align=left;" parent="1" vertex="1">
                    <mxGeometry x="572" y="746" width="220" height="30" as="geometry"/>
                </mxCell>
                <mxCell id="113" value="&amp;nbsp;func GetTemperature" style="rounded=0;whiteSpace=wrap;html=1;labelBackgroundColor=none;fontColor=#000000;align=left;" parent="1" vertex="1">
                    <mxGeometry x="572" y="786" width="220" height="30" as="geometry"/>
                </mxCell>
                <mxCell id="114" value="&amp;nbsp;func GetHumidity" style="rounded=0;whiteSpace=wrap;html=1;labelBackgroundColor=none;fontColor=#000000;align=left;" parent="1" vertex="1">
                    <mxGeometry x="572" y="826" width="220" height="30" as="geometry"/>
                </mxCell>
                <mxCell id="115" value="&amp;nbsp;func GetCO2" style="rounded=0;whiteSpace=wrap;html=1;labelBackgroundColor=none;fontColor=#000000;align=left;" parent="1" vertex="1">
                    <mxGeometry x="572" y="866" width="220" height="30" as="geometry"/>
                </mxCell>
                <mxCell id="116" value="&amp;nbsp;func PeopleDetection" style="rounded=0;whiteSpace=wrap;html=1;labelBackgroundColor=none;fontColor=#000000;align=left;" parent="1" vertex="1">
                    <mxGeometry x="572" y="906" width="220" height="30" as="geometry"/>
                </mxCell>
                <mxCell id="330" value="&lt;font color=&quot;#000000&quot;&gt;&lt;b&gt;Mô tả hoạt động của chương trình con:&lt;/b&gt;&lt;/font&gt;" style="text;html=1;strokeColor=none;fillColor=none;align=left;verticalAlign=middle;whiteSpace=wrap;rounded=0;labelBackgroundColor=none;fontColor=#FFFFFF;movable=1;resizable=1;rotatable=1;deletable=1;editable=1;connectable=1;" parent="1" vertex="1">
                    <mxGeometry x="1720" y="10" width="560" height="30" as="geometry"/>
                </mxCell>
                <mxCell id="356" value="&lt;span style=&quot;color: rgb(0, 0, 0); font-family: Helvetica; font-size: 12px; font-style: normal; font-variant-ligatures: normal; font-variant-caps: normal; font-weight: 400; letter-spacing: normal; orphans: 2; text-align: center; text-indent: 0px; text-transform: none; widows: 2; word-spacing: 0px; -webkit-text-stroke-width: 0px; background-color: rgb(251, 251, 251); text-decoration-thickness: initial; text-decoration-style: initial; text-decoration-color: initial; float: none; display: inline !important;&quot;&gt;_SensorReading&lt;/span&gt;" style="text;whiteSpace=wrap;html=1;fontColor=#000000;" parent="1" vertex="1">
                    <mxGeometry x="1720" y="40" width="120" height="40" as="geometry"/>
                </mxCell>
                <mxCell id="362" value="" style="edgeStyle=none;html=1;fontColor=#000000;" parent="1" source="358" target="360" edge="1">
                    <mxGeometry relative="1" as="geometry"/>
                </mxCell>
                <mxCell id="358" value="Bắt đầu" style="ellipse;whiteSpace=wrap;html=1;labelBackgroundColor=none;fontColor=#000000;" parent="1" vertex="1">
                    <mxGeometry x="1710" y="74" width="80" height="36" as="geometry"/>
                </mxCell>
                <mxCell id="363" value="" style="edgeStyle=none;html=1;fontColor=#000000;" parent="1" source="360" target="361" edge="1">
                    <mxGeometry relative="1" as="geometry"/>
                </mxCell>
                <mxCell id="360" value="SensorReading" style="shape=process;whiteSpace=wrap;html=1;backgroundOutline=1;labelBackgroundColor=none;fontColor=#000000;" parent="1" vertex="1">
                    <mxGeometry x="1820" y="77" width="120" height="30" as="geometry"/>
                </mxCell>
                <mxCell id="361" value="Kết thúc" style="ellipse;whiteSpace=wrap;html=1;labelBackgroundColor=none;fontColor=#000000;" parent="1" vertex="1">
                    <mxGeometry x="1990" y="74" width="80" height="36" as="geometry"/>
                </mxCell>
                <mxCell id="364" value="&lt;span style=&quot;color: rgb(0, 0, 0); font-family: Helvetica; font-size: 12px; font-style: normal; font-variant-ligatures: normal; font-variant-caps: normal; font-weight: 400; letter-spacing: normal; orphans: 2; text-align: center; text-indent: 0px; text-transform: none; widows: 2; word-spacing: 0px; -webkit-text-stroke-width: 0px; background-color: rgb(251, 251, 251); text-decoration-thickness: initial; text-decoration-style: initial; text-decoration-color: initial; float: none; display: inline !important;&quot;&gt;SensorReading&lt;/span&gt;" style="text;whiteSpace=wrap;html=1;fontColor=#000000;" parent="1" vertex="1">
                    <mxGeometry x="1720" y="117.5" width="120" height="40" as="geometry"/>
                </mxCell>
                <mxCell id="367" value="" style="edgeStyle=none;html=1;fontColor=#000000;" parent="1" source="365" target="366" edge="1">
                    <mxGeometry relative="1" as="geometry"/>
                </mxCell>
                <mxCell id="365" value="Bắt đầu" style="ellipse;whiteSpace=wrap;html=1;labelBackgroundColor=none;fontColor=#000000;" parent="1" vertex="1">
                    <mxGeometry x="1720" y="146" width="80" height="36" as="geometry"/>
                </mxCell>
                <mxCell id="366" value="Tạo WorkerThread" style="shape=hexagon;perimeter=hexagonPerimeter2;whiteSpace=wrap;html=1;fixedSize=1;labelBackgroundColor=none;fontColor=#000000;" parent="1" vertex="1">
                    <mxGeometry x="1820" y="151" width="140" height="26" as="geometry"/>
                </mxCell>
                <mxCell id="368" value="" style="endArrow=classic;html=1;fontColor=#000000;exitX=1;exitY=0.5;exitDx=0;exitDy=0;" parent="1" source="366" edge="1">
                    <mxGeometry width="50" height="50" relative="1" as="geometry">
                        <mxPoint x="2010" y="190" as="sourcePoint"/>
                        <mxPoint x="2020" y="164" as="targetPoint"/>
                    </mxGeometry>
                </mxCell>
                <mxCell id="373" value="" style="edgeStyle=none;html=1;fontColor=#000000;" parent="1" source="370" target="371" edge="1">
                    <mxGeometry relative="1" as="geometry"/>
                </mxCell>
                <mxCell id="370" value="UpdateData" style="shape=process;whiteSpace=wrap;html=1;backgroundOutline=1;labelBackgroundColor=none;fontColor=#000000;" parent="1" vertex="1">
                    <mxGeometry x="2020" y="149" width="120" height="30" as="geometry"/>
                </mxCell>
                <mxCell id="374" value="" style="edgeStyle=none;html=1;fontColor=#000000;" parent="1" source="371" target="372" edge="1">
                    <mxGeometry relative="1" as="geometry"/>
                </mxCell>
                <mxCell id="371" value="Gởi tín hiệu finished" style="rounded=0;whiteSpace=wrap;html=1;labelBackgroundColor=none;fontColor=#000000;" parent="1" vertex="1">
                    <mxGeometry x="2180" y="149" width="120" height="30" as="geometry"/>
                </mxCell>
                <mxCell id="372" value="Kết thúc" style="ellipse;whiteSpace=wrap;html=1;labelBackgroundColor=none;fontColor=#000000;" parent="1" vertex="1">
                    <mxGeometry x="2340" y="146" width="80" height="36" as="geometry"/>
                </mxCell>
                <mxCell id="375" value="&lt;span style=&quot;color: rgb(0, 0, 0); font-family: Helvetica; font-size: 12px; font-style: normal; font-variant-ligatures: normal; font-variant-caps: normal; font-weight: 400; letter-spacing: normal; orphans: 2; text-align: center; text-indent: 0px; text-transform: none; widows: 2; word-spacing: 0px; -webkit-text-stroke-width: 0px; background-color: rgb(251, 251, 251); text-decoration-thickness: initial; text-decoration-style: initial; text-decoration-color: initial; float: none; display: inline !important;&quot;&gt;SensorReading.UpdateData&lt;/span&gt;" style="text;whiteSpace=wrap;html=1;fontColor=#000000;" parent="1" vertex="1">
                    <mxGeometry x="1720" y="182" width="180" height="40" as="geometry"/>
                </mxCell>
                <mxCell id="378" style="edgeStyle=none;html=1;entryX=0.5;entryY=0;entryDx=0;entryDy=0;fontColor=#000000;" parent="1" source="376" target="377" edge="1">
                    <mxGeometry relative="1" as="geometry">
                        <Array as="points">
                            <mxPoint x="1980" y="226"/>
                        </Array>
                    </mxGeometry>
                </mxCell>
                <mxCell id="376" value="Bắt đầu" style="ellipse;whiteSpace=wrap;html=1;labelBackgroundColor=none;fontColor=#000000;" parent="1" vertex="1">
                    <mxGeometry x="1720" y="208" width="80" height="36" as="geometry"/>
                </mxCell>
                <mxCell id="383" style="edgeStyle=none;html=1;entryX=0;entryY=0.5;entryDx=0;entryDy=0;fontColor=#000000;" parent="1" source="377" target="381" edge="1">
                    <mxGeometry relative="1" as="geometry"/>
                </mxCell>
                <mxCell id="389" value="" style="edgeStyle=none;html=1;fontColor=#000000;" parent="1" source="377" target="385" edge="1">
                    <mxGeometry relative="1" as="geometry"/>
                </mxCell>
                <mxCell id="377" value="sensor_read_val == True" style="rhombus;whiteSpace=wrap;html=1;labelBackgroundColor=none;fontColor=#000000;" parent="1" vertex="1">
                    <mxGeometry x="1889.5" y="260" width="180.5" height="60" as="geometry"/>
                </mxCell>
                <mxCell id="380" value="" style="edgeStyle=none;html=1;fontColor=#000000;" parent="1" source="381" target="382" edge="1">
                    <mxGeometry relative="1" as="geometry"/>
                </mxCell>
                <mxCell id="381" value="Gởi tín hiệu finished" style="rounded=0;whiteSpace=wrap;html=1;labelBackgroundColor=none;fontColor=#000000;" parent="1" vertex="1">
                    <mxGeometry x="2180" y="275" width="120" height="30" as="geometry"/>
                </mxCell>
                <mxCell id="382" value="Kết thúc" style="ellipse;whiteSpace=wrap;html=1;labelBackgroundColor=none;fontColor=#000000;" parent="1" vertex="1">
                    <mxGeometry x="2340" y="272" width="80" height="36" as="geometry"/>
                </mxCell>
                <mxCell id="384" value="False" style="text;html=1;strokeColor=none;fillColor=none;align=center;verticalAlign=middle;whiteSpace=wrap;rounded=0;labelBackgroundColor=none;fontColor=#000000;" parent="1" vertex="1">
                    <mxGeometry x="2080" y="269" width="60" height="30" as="geometry"/>
                </mxCell>
                <mxCell id="390" style="edgeStyle=none;html=1;entryX=0.5;entryY=1;entryDx=0;entryDy=0;fontColor=#000000;" parent="1" source="385" target="386" edge="1">
                    <mxGeometry relative="1" as="geometry">
                        <Array as="points">
                            <mxPoint x="1860" y="360"/>
                            <mxPoint x="1850" y="360"/>
                        </Array>
                    </mxGeometry>
                </mxCell>
                <mxCell id="385" value="Cập nhật giá trị cảm biến trên UI" style="rounded=0;whiteSpace=wrap;html=1;labelBackgroundColor=none;fontColor=#000000;" parent="1" vertex="1">
                    <mxGeometry x="1869.63" y="350" width="220.25" height="30" as="geometry"/>
                </mxCell>
                <mxCell id="386" value="" style="ellipse;whiteSpace=wrap;html=1;aspect=fixed;labelBackgroundColor=none;fontColor=#000000;" parent="1" vertex="1">
                    <mxGeometry x="1840.5" y="215" width="21" height="21" as="geometry"/>
                </mxCell>
                <mxCell id="391" value="" style="edgeStyle=none;html=1;fontColor=#000000;" parent="1" source="392" target="394" edge="1">
                    <mxGeometry relative="1" as="geometry"/>
                </mxCell>
                <mxCell id="392" value="Bắt đầu" style="ellipse;whiteSpace=wrap;html=1;labelBackgroundColor=none;fontColor=#000000;" parent="1" vertex="1">
                    <mxGeometry x="1710" y="434" width="80" height="36" as="geometry"/>
                </mxCell>
                <mxCell id="393" value="" style="edgeStyle=none;html=1;fontColor=#000000;" parent="1" source="394" target="395" edge="1">
                    <mxGeometry relative="1" as="geometry"/>
                </mxCell>
                <mxCell id="394" value="ServerStreaming" style="shape=process;whiteSpace=wrap;html=1;backgroundOutline=1;labelBackgroundColor=none;fontColor=#000000;" parent="1" vertex="1">
                    <mxGeometry x="1820" y="437" width="120" height="30" as="geometry"/>
                </mxCell>
                <mxCell id="395" value="Kết thúc" style="ellipse;whiteSpace=wrap;html=1;labelBackgroundColor=none;fontColor=#000000;" parent="1" vertex="1">
                    <mxGeometry x="1990" y="434" width="80" height="36" as="geometry"/>
                </mxCell>
                <mxCell id="396" value="&lt;span style=&quot;text-align: center;&quot;&gt;ServerStreaming&lt;/span&gt;" style="text;whiteSpace=wrap;html=1;fontColor=#000000;" parent="1" vertex="1">
                    <mxGeometry x="1720" y="477.5" width="120" height="40" as="geometry"/>
                </mxCell>
                <mxCell id="397" value="" style="edgeStyle=none;html=1;fontColor=#000000;" parent="1" source="398" target="399" edge="1">
                    <mxGeometry relative="1" as="geometry"/>
                </mxCell>
                <mxCell id="398" value="Bắt đầu" style="ellipse;whiteSpace=wrap;html=1;labelBackgroundColor=none;fontColor=#000000;" parent="1" vertex="1">
                    <mxGeometry x="1720" y="506" width="80" height="36" as="geometry"/>
                </mxCell>
                <mxCell id="399" value="Tạo WorkerThread" style="shape=hexagon;perimeter=hexagonPerimeter2;whiteSpace=wrap;html=1;fixedSize=1;labelBackgroundColor=none;fontColor=#000000;" parent="1" vertex="1">
                    <mxGeometry x="1820" y="511" width="140" height="26" as="geometry"/>
                </mxCell>
                <mxCell id="400" value="" style="endArrow=classic;html=1;fontColor=#000000;exitX=1;exitY=0.5;exitDx=0;exitDy=0;" parent="1" source="399" edge="1">
                    <mxGeometry width="50" height="50" relative="1" as="geometry">
                        <mxPoint x="2010" y="550" as="sourcePoint"/>
                        <mxPoint x="2020" y="524" as="targetPoint"/>
                    </mxGeometry>
                </mxCell>
                <mxCell id="401" value="" style="edgeStyle=none;html=1;fontColor=#000000;" parent="1" source="402" target="404" edge="1">
                    <mxGeometry relative="1" as="geometry"/>
                </mxCell>
                <mxCell id="402" value="UpdateData" style="shape=process;whiteSpace=wrap;html=1;backgroundOutline=1;labelBackgroundColor=none;fontColor=#000000;" parent="1" vertex="1">
                    <mxGeometry x="2020" y="509" width="120" height="30" as="geometry"/>
                </mxCell>
                <mxCell id="403" value="" style="edgeStyle=none;html=1;fontColor=#000000;" parent="1" source="404" target="405" edge="1">
                    <mxGeometry relative="1" as="geometry"/>
                </mxCell>
                <mxCell id="404" value="Gởi tín hiệu finished" style="rounded=0;whiteSpace=wrap;html=1;labelBackgroundColor=none;fontColor=#000000;" parent="1" vertex="1">
                    <mxGeometry x="2180" y="509" width="120" height="30" as="geometry"/>
                </mxCell>
                <mxCell id="405" value="Kết thúc" style="ellipse;whiteSpace=wrap;html=1;labelBackgroundColor=none;fontColor=#000000;" parent="1" vertex="1">
                    <mxGeometry x="2340" y="506" width="80" height="36" as="geometry"/>
                </mxCell>
                <mxCell id="406" value="&lt;span style=&quot;color: rgb(0, 0, 0); font-family: Helvetica; font-size: 12px; font-style: normal; font-variant-ligatures: normal; font-variant-caps: normal; font-weight: 400; letter-spacing: normal; orphans: 2; text-align: center; text-indent: 0px; text-transform: none; widows: 2; word-spacing: 0px; -webkit-text-stroke-width: 0px; background-color: rgb(251, 251, 251); text-decoration-thickness: initial; text-decoration-style: initial; text-decoration-color: initial; float: none; display: inline !important;&quot;&gt;ServerStreaming.UpdateData&lt;/span&gt;" style="text;whiteSpace=wrap;html=1;fontColor=#000000;" parent="1" vertex="1">
                    <mxGeometry x="1720" y="542" width="180" height="40" as="geometry"/>
                </mxCell>
                <mxCell id="407" style="edgeStyle=none;html=1;entryX=0.5;entryY=0;entryDx=0;entryDy=0;fontColor=#000000;" parent="1" source="408" target="411" edge="1">
                    <mxGeometry relative="1" as="geometry">
                        <Array as="points">
                            <mxPoint x="1980" y="586"/>
                        </Array>
                    </mxGeometry>
                </mxCell>
                <mxCell id="408" value="Bắt đầu" style="ellipse;whiteSpace=wrap;html=1;labelBackgroundColor=none;fontColor=#000000;" parent="1" vertex="1">
                    <mxGeometry x="1720" y="568" width="80" height="36" as="geometry"/>
                </mxCell>
                <mxCell id="409" style="edgeStyle=none;html=1;entryX=0;entryY=0.5;entryDx=0;entryDy=0;fontColor=#000000;" parent="1" source="411" target="413" edge="1">
                    <mxGeometry relative="1" as="geometry"/>
                </mxCell>
                <mxCell id="410" value="" style="edgeStyle=none;html=1;fontColor=#000000;" parent="1" source="411" target="417" edge="1">
                    <mxGeometry relative="1" as="geometry"/>
                </mxCell>
                <mxCell id="411" value="server_streaming_val == True" style="rhombus;whiteSpace=wrap;html=1;labelBackgroundColor=none;fontColor=#000000;" parent="1" vertex="1">
                    <mxGeometry x="1880" y="620" width="200" height="60" as="geometry"/>
                </mxCell>
                <mxCell id="412" value="" style="edgeStyle=none;html=1;fontColor=#000000;" parent="1" source="413" target="414" edge="1">
                    <mxGeometry relative="1" as="geometry"/>
                </mxCell>
                <mxCell id="413" value="Gởi tín hiệu finished" style="rounded=0;whiteSpace=wrap;html=1;labelBackgroundColor=none;fontColor=#000000;" parent="1" vertex="1">
                    <mxGeometry x="2180" y="635" width="120" height="30" as="geometry"/>
                </mxCell>
                <mxCell id="414" value="Kết thúc" style="ellipse;whiteSpace=wrap;html=1;labelBackgroundColor=none;fontColor=#000000;" parent="1" vertex="1">
                    <mxGeometry x="2340" y="632" width="80" height="36" as="geometry"/>
                </mxCell>
                <mxCell id="415" value="False" style="text;html=1;strokeColor=none;fillColor=none;align=center;verticalAlign=middle;whiteSpace=wrap;rounded=0;labelBackgroundColor=none;fontColor=#000000;" parent="1" vertex="1">
                    <mxGeometry x="2080" y="629" width="60" height="30" as="geometry"/>
                </mxCell>
                <mxCell id="421" style="edgeStyle=none;html=1;entryX=0.5;entryY=0;entryDx=0;entryDy=0;fontColor=#000000;" parent="1" source="417" target="420" edge="1">
                    <mxGeometry relative="1" as="geometry"/>
                </mxCell>
                <mxCell id="417" value="Cập nhật trạng thái kết nối trên UI" style="rounded=0;whiteSpace=wrap;html=1;labelBackgroundColor=none;fontColor=#000000;" parent="1" vertex="1">
                    <mxGeometry x="1869.63" y="710" width="220.25" height="30" as="geometry"/>
                </mxCell>
                <mxCell id="418" value="" style="ellipse;whiteSpace=wrap;html=1;aspect=fixed;labelBackgroundColor=none;fontColor=#000000;" parent="1" vertex="1">
                    <mxGeometry x="1839.5" y="575" width="21" height="21" as="geometry"/>
                </mxCell>
                <mxCell id="419" value="&lt;div style=&quot;text-align: center;&quot;&gt;&lt;span style=&quot;background-color: initial;&quot;&gt;_ServerStreaming&lt;/span&gt;&lt;/div&gt;" style="text;whiteSpace=wrap;html=1;fontColor=#000000;" parent="1" vertex="1">
                    <mxGeometry x="1720" y="400" width="120" height="40" as="geometry"/>
                </mxCell>
                <mxCell id="420" value="Gởi dữ liệu lên server" style="rounded=0;whiteSpace=wrap;html=1;labelBackgroundColor=none;fontColor=#000000;" parent="1" vertex="1">
                    <mxGeometry x="1869.63" y="775" width="220.25" height="30" as="geometry"/>
                </mxCell>
                <mxCell id="423" value="" style="endArrow=classic;html=1;fontColor=#000000;exitX=0;exitY=0.5;exitDx=0;exitDy=0;entryX=0.5;entryY=1;entryDx=0;entryDy=0;" parent="1" source="420" target="418" edge="1">
                    <mxGeometry width="50" height="50" relative="1" as="geometry">
                        <mxPoint x="2060" y="680" as="sourcePoint"/>
                        <mxPoint x="2110" y="630" as="targetPoint"/>
                        <Array as="points">
                            <mxPoint x="1850" y="790"/>
                        </Array>
                    </mxGeometry>
                </mxCell>
                <mxCell id="424" style="edgeStyle=none;html=1;exitX=0.069;exitY=1.016;exitDx=0;exitDy=0;entryX=1;entryY=0.5;entryDx=0;entryDy=0;fontColor=#000000;exitPerimeter=0;" parent="1" edge="1">
                    <mxGeometry relative="1" as="geometry">
                        <mxPoint x="1202.4559999999997" y="371.9850000000001" as="sourcePoint"/>
                        <mxPoint x="1120" y="373" as="targetPoint"/>
                    </mxGeometry>
                </mxCell>
                <mxCell id="425" style="edgeStyle=none;html=1;exitX=0.123;exitY=0.979;exitDx=0;exitDy=0;fontColor=#000000;entryX=1;entryY=0.5;entryDx=0;entryDy=0;exitPerimeter=0;" parent="1" edge="1">
                    <mxGeometry relative="1" as="geometry">
                        <mxPoint x="1120" y="403" as="targetPoint"/>
                        <mxPoint x="1203.714" y="402.4949999999999" as="sourcePoint"/>
                    </mxGeometry>
                </mxCell>
                <mxCell id="426" style="edgeStyle=none;html=1;fontColor=#000000;exitX=0.178;exitY=1.004;exitDx=0;exitDy=0;exitPerimeter=0;" parent="1" edge="1">
                    <mxGeometry relative="1" as="geometry">
                        <mxPoint x="1202.864" y="433.57000000000016" as="sourcePoint"/>
                        <mxPoint x="1120" y="433.3580659056645" as="targetPoint"/>
                    </mxGeometry>
                </mxCell>
                <mxCell id="427" style="edgeStyle=none;html=1;fontColor=#000000;exitX=0.23;exitY=1.088;exitDx=0;exitDy=0;exitPerimeter=0;" parent="1" edge="1">
                    <mxGeometry relative="1" as="geometry">
                        <mxPoint x="1200.0079999999996" y="462.9499999999998" as="sourcePoint"/>
                        <mxPoint x="1120" y="462.9681829751644" as="targetPoint"/>
                    </mxGeometry>
                </mxCell>
                <mxCell id="428" style="edgeStyle=none;html=1;exitX=0.285;exitY=0.991;exitDx=0;exitDy=0;entryX=1;entryY=0.5;entryDx=0;entryDy=0;fontColor=#000000;exitPerimeter=0;" parent="1" edge="1">
                    <mxGeometry relative="1" as="geometry">
                        <mxPoint x="1203.306" y="494.0250000000001" as="sourcePoint"/>
                        <mxPoint x="1120" y="494" as="targetPoint"/>
                    </mxGeometry>
                </mxCell>
                <mxCell id="429" style="edgeStyle=none;html=1;exitX=0.34;exitY=0.979;exitDx=0;exitDy=0;entryX=1;entryY=0.5;entryDx=0;entryDy=0;fontColor=#000000;exitPerimeter=0;" parent="1" edge="1">
                    <mxGeometry relative="1" as="geometry">
                        <mxPoint x="1203.714" y="525.0999999999999" as="sourcePoint"/>
                        <mxPoint x="1120" y="525" as="targetPoint"/>
                    </mxGeometry>
                </mxCell>
                <mxCell id="430" style="edgeStyle=none;html=1;exitX=0.397;exitY=0.979;exitDx=0;exitDy=0;entryX=1;entryY=0.5;entryDx=0;entryDy=0;fontColor=#000000;exitPerimeter=0;" parent="1" edge="1">
                    <mxGeometry relative="1" as="geometry">
                        <mxPoint x="1203.714" y="557.3050000000001" as="sourcePoint"/>
                        <mxPoint x="1120" y="557" as="targetPoint"/>
                    </mxGeometry>
                </mxCell>
                <mxCell id="431" style="edgeStyle=none;html=1;exitX=0.453;exitY=0.979;exitDx=0;exitDy=0;entryX=1;entryY=0.5;entryDx=0;entryDy=0;fontColor=#000000;exitPerimeter=0;" parent="1" edge="1">
                    <mxGeometry relative="1" as="geometry">
                        <mxPoint x="1203.714" y="588.9450000000002" as="sourcePoint"/>
                        <mxPoint x="1120" y="589" as="targetPoint"/>
                    </mxGeometry>
                </mxCell>
                <mxCell id="432" style="edgeStyle=none;html=1;exitX=0.509;exitY=1.004;exitDx=0;exitDy=0;entryX=1;entryY=0.5;entryDx=0;entryDy=0;fontColor=#000000;exitPerimeter=0;" parent="1" edge="1">
                    <mxGeometry relative="1" as="geometry">
                        <mxPoint x="1202.864" y="620.585" as="sourcePoint"/>
                        <mxPoint x="1120" y="620.9999999999998" as="targetPoint"/>
                    </mxGeometry>
                </mxCell>
                <mxCell id="433" style="edgeStyle=none;html=1;exitX=0.566;exitY=0.966;exitDx=0;exitDy=0;entryX=1;entryY=0.5;entryDx=0;entryDy=0;fontColor=#000000;exitPerimeter=0;" parent="1" edge="1">
                    <mxGeometry relative="1" as="geometry">
                        <mxPoint x="1204.1559999999997" y="652.79" as="sourcePoint"/>
                        <mxPoint x="1120" y="653" as="targetPoint"/>
                    </mxGeometry>
                </mxCell>
                <mxCell id="434" style="edgeStyle=none;html=1;exitX=0.622;exitY=1.007;exitDx=0;exitDy=0;entryX=1;entryY=0.5;entryDx=0;entryDy=0;fontColor=#000000;exitPerimeter=0;" parent="1" edge="1">
                    <mxGeometry relative="1" as="geometry">
                        <mxPoint x="1202.7620000000002" y="684.4299999999998" as="sourcePoint"/>
                        <mxPoint x="1120" y="685" as="targetPoint"/>
                    </mxGeometry>
                </mxCell>
                <mxCell id="435" style="edgeStyle=none;html=1;fontColor=#000000;exitX=0.681;exitY=1.028;exitDx=0;exitDy=0;exitPerimeter=0;" parent="1" edge="1">
                    <mxGeometry relative="1" as="geometry">
                        <mxPoint x="1202.0480000000002" y="717.7649999999999" as="sourcePoint"/>
                        <mxPoint x="1120" y="717.8518338377285" as="targetPoint"/>
                    </mxGeometry>
                </mxCell>
                <mxCell id="436" style="edgeStyle=none;html=1;fontColor=#000000;exitX=0.736;exitY=0.993;exitDx=0;exitDy=0;exitPerimeter=0;" parent="1" edge="1">
                    <mxGeometry relative="1" as="geometry">
                        <mxPoint x="1203.2380000000003" y="748.8400000000001" as="sourcePoint"/>
                        <mxPoint x="1120" y="749.2725252869134" as="targetPoint"/>
                    </mxGeometry>
                </mxCell>
                <mxCell id="437" style="edgeStyle=none;html=1;fontColor=#000000;exitX=0.798;exitY=0.993;exitDx=0;exitDy=0;exitPerimeter=0;" parent="1" edge="1">
                    <mxGeometry relative="1" as="geometry">
                        <mxPoint x="1203.2380000000003" y="783.8699999999999" as="sourcePoint"/>
                        <mxPoint x="1120" y="783.5456060348147" as="targetPoint"/>
                    </mxGeometry>
                </mxCell>
                <mxCell id="438" style="edgeStyle=none;html=1;fontColor=#000000;exitX=0.853;exitY=1.088;exitDx=0;exitDy=0;exitPerimeter=0;" parent="1" edge="1">
                    <mxGeometry relative="1" as="geometry">
                        <mxPoint x="1200.0080000000003" y="814.9450000000002" as="sourcePoint"/>
                        <mxPoint x="1120" y="814.9650012726811" as="targetPoint"/>
                    </mxGeometry>
                </mxCell>
                <mxCell id="439" value="&lt;font color=&quot;#000000&quot;&gt;&lt;b&gt;Mô tả hoạt động của chương trình chính:&lt;/b&gt;&lt;/font&gt;" style="text;html=1;strokeColor=none;fillColor=none;align=left;verticalAlign=middle;whiteSpace=wrap;rounded=0;labelBackgroundColor=none;fontColor=#FFFFFF;movable=1;resizable=1;rotatable=1;deletable=1;editable=1;connectable=1;" parent="1" vertex="1">
                    <mxGeometry x="860" y="10" width="560" height="30" as="geometry"/>
                </mxCell>
                <mxCell id="440" style="edgeStyle=none;html=1;entryX=0;entryY=0.5;entryDx=0;entryDy=0;fontColor=#000000;" parent="1" source="441" target="443" edge="1">
                    <mxGeometry relative="1" as="geometry"/>
                </mxCell>
                <mxCell id="441" value="Bắt đầu" style="ellipse;whiteSpace=wrap;html=1;labelBackgroundColor=none;fontColor=#000000;" parent="1" vertex="1">
                    <mxGeometry x="880" y="60" width="120" height="50" as="geometry"/>
                </mxCell>
                <mxCell id="442" style="edgeStyle=none;html=1;entryX=0;entryY=0.5;entryDx=0;entryDy=0;fontColor=#000000;" parent="1" source="443" target="445" edge="1">
                    <mxGeometry relative="1" as="geometry"/>
                </mxCell>
                <mxCell id="443" value="Khởi tạo các module &lt;br&gt;bên trong PySide6" style="rounded=0;whiteSpace=wrap;html=1;labelBackgroundColor=none;fontColor=#000000;" parent="1" vertex="1">
                    <mxGeometry x="1130" y="52.5" width="200" height="65" as="geometry"/>
                </mxCell>
                <mxCell id="444" style="edgeStyle=none;html=1;entryX=0.5;entryY=0;entryDx=0;entryDy=0;fontColor=#000000;" parent="1" source="445" target="447" edge="1">
                    <mxGeometry relative="1" as="geometry"/>
                </mxCell>
                <mxCell id="445" value="Khởi tạo module Ui_MYAPP" style="rounded=0;whiteSpace=wrap;html=1;labelBackgroundColor=none;fontColor=#000000;" parent="1" vertex="1">
                    <mxGeometry x="1460" y="52.5" width="200" height="65" as="geometry"/>
                </mxCell>
                <mxCell id="446" style="edgeStyle=none;html=1;entryX=1;entryY=0.5;entryDx=0;entryDy=0;fontColor=#000000;" parent="1" source="447" target="450" edge="1">
                    <mxGeometry relative="1" as="geometry">
                        <mxPoint x="1340" y="193" as="targetPoint"/>
                    </mxGeometry>
                </mxCell>
                <mxCell id="447" value="Khởi chạy module MYAPP" style="rounded=0;whiteSpace=wrap;html=1;labelBackgroundColor=none;fontColor=#000000;" parent="1" vertex="1">
                    <mxGeometry x="1460" y="160.5" width="200" height="65" as="geometry"/>
                </mxCell>
                <mxCell id="448" style="edgeStyle=none;html=1;entryX=0.5;entryY=0;entryDx=0;entryDy=0;fontColor=#000000;startArrow=none;" parent="1" source="460" target="451" edge="1">
                    <mxGeometry relative="1" as="geometry">
                        <mxPoint x="1240" y="193.9999999999999" as="targetPoint"/>
                        <Array as="points">
                            <mxPoint x="940" y="193"/>
                        </Array>
                    </mxGeometry>
                </mxCell>
                <mxCell id="449" style="edgeStyle=none;html=1;exitX=0;exitY=0.5;exitDx=0;exitDy=0;entryX=1;entryY=0.5;entryDx=0;entryDy=0;fontColor=#000000;" parent="1" source="450" target="460" edge="1">
                    <mxGeometry relative="1" as="geometry"/>
                </mxCell>
                <mxCell id="450" value="Khởi tạo PiCamera2 &lt;br&gt;giao hiện ứng dụng,&lt;br&gt;" style="rounded=0;whiteSpace=wrap;html=1;labelBackgroundColor=none;fontColor=#000000;" parent="1" vertex="1">
                    <mxGeometry x="1263" y="160.5" width="150" height="65" as="geometry"/>
                </mxCell>
                <mxCell id="451" value="_SensorReading" style="shape=process;whiteSpace=wrap;html=1;backgroundOutline=1;labelBackgroundColor=none;fontColor=#000000;" parent="1" vertex="1">
                    <mxGeometry x="870" y="260" width="140" height="50" as="geometry"/>
                </mxCell>
                <mxCell id="452" value="Kết thúc" style="ellipse;whiteSpace=wrap;html=1;labelBackgroundColor=none;fontColor=#000000;" parent="1" vertex="1">
                    <mxGeometry x="950" y="838" width="120" height="50" as="geometry"/>
                </mxCell>
                <mxCell id="453" value="" style="edgeStyle=none;html=1;fontColor=#000000;" parent="1" source="454" target="456" edge="1">
                    <mxGeometry relative="1" as="geometry"/>
                </mxCell>
                <mxCell id="454" value="_SensorReading" style="shape=process;whiteSpace=wrap;html=1;backgroundOutline=1;labelBackgroundColor=none;fontColor=#000000;" parent="1" vertex="1">
                    <mxGeometry x="870" y="260" width="140" height="50" as="geometry"/>
                </mxCell>
                <mxCell id="455" value="" style="edgeStyle=none;html=1;fontColor=#000000;" parent="1" source="456" target="458" edge="1">
                    <mxGeometry relative="1" as="geometry"/>
                </mxCell>
                <mxCell id="456" value="_CameraStreaming" style="shape=process;whiteSpace=wrap;html=1;backgroundOutline=1;labelBackgroundColor=none;fontColor=#000000;" parent="1" vertex="1">
                    <mxGeometry x="1055" y="261.25" width="140" height="50" as="geometry"/>
                </mxCell>
                <mxCell id="457" style="edgeStyle=none;html=1;exitX=1;exitY=0.5;exitDx=0;exitDy=0;entryX=0;entryY=0.5;entryDx=0;entryDy=0;fontColor=#000000;" parent="1" source="458" target="459" edge="1">
                    <mxGeometry relative="1" as="geometry">
                        <Array as="points">
                            <mxPoint x="1640" y="286"/>
                        </Array>
                    </mxGeometry>
                </mxCell>
                <mxCell id="458" value="_ServerStreaming" style="shape=process;whiteSpace=wrap;html=1;backgroundOutline=1;labelBackgroundColor=none;fontColor=#000000;" parent="1" vertex="1">
                    <mxGeometry x="1250" y="261.25" width="140" height="50" as="geometry"/>
                </mxCell>
                <mxCell id="459" value="Nút nhấn" style="shape=hexagon;perimeter=hexagonPerimeter2;whiteSpace=wrap;html=1;fixedSize=1;labelBackgroundColor=none;fontColor=#000000;rotation=90;" parent="1" vertex="1">
                    <mxGeometry x="1357.5" y="598.5" width="565" height="34" as="geometry"/>
                </mxCell>
                <mxCell id="460" value="camera_streaming_val = True&lt;br&gt;server_streaming_val = True&lt;br&gt;people_detection_val = False&lt;br&gt;fire_waring_value = False&lt;br&gt;fire_waring_clicked_count = 0&lt;br&gt;" style="rounded=0;whiteSpace=wrap;html=1;labelBackgroundColor=none;fontColor=#000000;" parent="1" vertex="1">
                    <mxGeometry x="990" y="146" width="200" height="95.5" as="geometry"/>
                </mxCell>
                <mxCell id="461" style="edgeStyle=none;html=1;exitX=0.069;exitY=1.016;exitDx=0;exitDy=0;entryX=1;entryY=0.5;entryDx=0;entryDy=0;fontColor=#000000;exitPerimeter=0;" parent="1" source="459" target="462" edge="1">
                    <mxGeometry relative="1" as="geometry"/>
                </mxCell>
                <mxCell id="462" value="_FullSceenButtonAction" style="shape=process;whiteSpace=wrap;html=1;backgroundOutline=1;labelBackgroundColor=none;fontColor=#000000;" parent="1" vertex="1">
                    <mxGeometry x="1200" y="360" width="280" height="26" as="geometry"/>
                </mxCell>
                <mxCell id="463" style="edgeStyle=none;html=1;exitX=0.123;exitY=0.979;exitDx=0;exitDy=0;fontColor=#000000;entryX=1;entryY=0.5;entryDx=0;entryDy=0;exitPerimeter=0;" parent="1" source="459" target="464" edge="1">
                    <mxGeometry relative="1" as="geometry">
                        <mxPoint x="1550" y="403.1025641025641" as="sourcePoint"/>
                    </mxGeometry>
                </mxCell>
                <mxCell id="464" value="_RebootButtonAction" style="shape=process;whiteSpace=wrap;html=1;backgroundOutline=1;labelBackgroundColor=none;fontColor=#000000;" parent="1" vertex="1">
                    <mxGeometry x="1200" y="390" width="280" height="26" as="geometry"/>
                </mxCell>
                <mxCell id="465" style="edgeStyle=none;html=1;fontColor=#000000;exitX=0.178;exitY=1.004;exitDx=0;exitDy=0;exitPerimeter=0;" parent="1" source="459" target="466" edge="1">
                    <mxGeometry relative="1" as="geometry"/>
                </mxCell>
                <mxCell id="466" value="_ClearAllNotification" style="shape=process;whiteSpace=wrap;html=1;backgroundOutline=1;labelBackgroundColor=none;fontColor=#000000;" parent="1" vertex="1">
                    <mxGeometry x="1200" y="420" width="280" height="26" as="geometry"/>
                </mxCell>
                <mxCell id="467" style="edgeStyle=none;html=1;fontColor=#000000;exitX=0.23;exitY=1.088;exitDx=0;exitDy=0;exitPerimeter=0;" parent="1" source="459" target="468" edge="1">
                    <mxGeometry relative="1" as="geometry"/>
                </mxCell>
                <mxCell id="468" value="_ClearNotification" style="shape=process;whiteSpace=wrap;html=1;backgroundOutline=1;labelBackgroundColor=none;fontColor=#000000;" parent="1" vertex="1">
                    <mxGeometry x="1200" y="450" width="280" height="26" as="geometry"/>
                </mxCell>
                <mxCell id="469" style="edgeStyle=none;html=1;exitX=0.285;exitY=0.991;exitDx=0;exitDy=0;entryX=1;entryY=0.5;entryDx=0;entryDy=0;fontColor=#000000;exitPerimeter=0;" parent="1" source="459" target="470" edge="1">
                    <mxGeometry relative="1" as="geometry"/>
                </mxCell>
                <mxCell id="470" value="_SetNotification" style="shape=process;whiteSpace=wrap;html=1;backgroundOutline=1;labelBackgroundColor=none;fontColor=#000000;" parent="1" vertex="1">
                    <mxGeometry x="1200" y="481" width="280" height="26" as="geometry"/>
                </mxCell>
                <mxCell id="471" style="edgeStyle=none;html=1;exitX=0.34;exitY=0.979;exitDx=0;exitDy=0;entryX=1;entryY=0.5;entryDx=0;entryDy=0;fontColor=#000000;exitPerimeter=0;" parent="1" source="459" target="472" edge="1">
                    <mxGeometry relative="1" as="geometry"/>
                </mxCell>
                <mxCell id="472" value="_StartStopCameraButtonAction" style="shape=process;whiteSpace=wrap;html=1;backgroundOutline=1;labelBackgroundColor=none;fontColor=#000000;" parent="1" vertex="1">
                    <mxGeometry x="1200" y="512" width="280" height="26" as="geometry"/>
                </mxCell>
                <mxCell id="473" style="edgeStyle=none;html=1;exitX=0.397;exitY=0.979;exitDx=0;exitDy=0;entryX=1;entryY=0.5;entryDx=0;entryDy=0;fontColor=#000000;exitPerimeter=0;" parent="1" source="459" target="474" edge="1">
                    <mxGeometry relative="1" as="geometry"/>
                </mxCell>
                <mxCell id="474" value="_StartStopPeopleDetection" style="shape=process;whiteSpace=wrap;html=1;backgroundOutline=1;labelBackgroundColor=none;fontColor=#000000;" parent="1" vertex="1">
                    <mxGeometry x="1200" y="544" width="280" height="26" as="geometry"/>
                </mxCell>
                <mxCell id="475" style="edgeStyle=none;html=1;exitX=0.453;exitY=0.979;exitDx=0;exitDy=0;entryX=1;entryY=0.5;entryDx=0;entryDy=0;fontColor=#000000;exitPerimeter=0;" parent="1" source="459" target="476" edge="1">
                    <mxGeometry relative="1" as="geometry"/>
                </mxCell>
                <mxCell id="476" value="_PeopleDetection" style="shape=process;whiteSpace=wrap;html=1;backgroundOutline=1;labelBackgroundColor=none;fontColor=#000000;" parent="1" vertex="1">
                    <mxGeometry x="1200" y="576" width="280" height="26" as="geometry"/>
                </mxCell>
                <mxCell id="477" style="edgeStyle=none;html=1;exitX=0.509;exitY=1.004;exitDx=0;exitDy=0;entryX=1;entryY=0.5;entryDx=0;entryDy=0;fontColor=#000000;exitPerimeter=0;" parent="1" source="459" target="478" edge="1">
                    <mxGeometry relative="1" as="geometry"/>
                </mxCell>
                <mxCell id="478" value="_CameraStreaming" style="shape=process;whiteSpace=wrap;html=1;backgroundOutline=1;labelBackgroundColor=none;fontColor=#000000;" parent="1" vertex="1">
                    <mxGeometry x="1200" y="608" width="280" height="26" as="geometry"/>
                </mxCell>
                <mxCell id="479" style="edgeStyle=none;html=1;exitX=0.566;exitY=0.966;exitDx=0;exitDy=0;entryX=1;entryY=0.5;entryDx=0;entryDy=0;fontColor=#000000;exitPerimeter=0;" parent="1" source="459" target="480" edge="1">
                    <mxGeometry relative="1" as="geometry"/>
                </mxCell>
                <mxCell id="480" value="_StartStopServerSync" style="shape=process;whiteSpace=wrap;html=1;backgroundOutline=1;labelBackgroundColor=none;fontColor=#000000;" parent="1" vertex="1">
                    <mxGeometry x="1200" y="640" width="280" height="26" as="geometry"/>
                </mxCell>
                <mxCell id="481" style="edgeStyle=none;html=1;exitX=0.622;exitY=1.007;exitDx=0;exitDy=0;entryX=1;entryY=0.5;entryDx=0;entryDy=0;fontColor=#000000;exitPerimeter=0;" parent="1" source="459" target="482" edge="1">
                    <mxGeometry relative="1" as="geometry"/>
                </mxCell>
                <mxCell id="482" value="_ServerStreaming" style="shape=process;whiteSpace=wrap;html=1;backgroundOutline=1;labelBackgroundColor=none;fontColor=#000000;" parent="1" vertex="1">
                    <mxGeometry x="1200" y="672" width="280" height="26" as="geometry"/>
                </mxCell>
                <mxCell id="483" style="edgeStyle=none;html=1;fontColor=#000000;exitX=0.681;exitY=1.028;exitDx=0;exitDy=0;exitPerimeter=0;" parent="1" source="459" target="484" edge="1">
                    <mxGeometry relative="1" as="geometry"/>
                </mxCell>
                <mxCell id="484" value="_SetResetFireWaring" style="shape=process;whiteSpace=wrap;html=1;backgroundOutline=1;labelBackgroundColor=none;fontColor=#000000;" parent="1" vertex="1">
                    <mxGeometry x="1200" y="705" width="280" height="26" as="geometry"/>
                </mxCell>
                <mxCell id="485" style="edgeStyle=none;html=1;fontColor=#000000;exitX=0.736;exitY=0.993;exitDx=0;exitDy=0;exitPerimeter=0;" parent="1" source="459" target="486" edge="1">
                    <mxGeometry relative="1" as="geometry"/>
                </mxCell>
                <mxCell id="486" value="_FireWaring" style="shape=process;whiteSpace=wrap;html=1;backgroundOutline=1;labelBackgroundColor=none;fontColor=#000000;" parent="1" vertex="1">
                    <mxGeometry x="1200" y="737" width="280" height="26" as="geometry"/>
                </mxCell>
                <mxCell id="487" style="edgeStyle=none;html=1;fontColor=#000000;exitX=0.798;exitY=0.993;exitDx=0;exitDy=0;exitPerimeter=0;" parent="1" source="459" target="488" edge="1">
                    <mxGeometry relative="1" as="geometry"/>
                </mxCell>
                <mxCell id="488" value="_RefreshButtonAction" style="shape=process;whiteSpace=wrap;html=1;backgroundOutline=1;labelBackgroundColor=none;fontColor=#000000;" parent="1" vertex="1">
                    <mxGeometry x="1200" y="770" width="280" height="26" as="geometry"/>
                </mxCell>
                <mxCell id="489" style="edgeStyle=none;html=1;fontColor=#000000;exitX=0.853;exitY=1.088;exitDx=0;exitDy=0;exitPerimeter=0;" parent="1" source="459" target="490" edge="1">
                    <mxGeometry relative="1" as="geometry"/>
                </mxCell>
                <mxCell id="490" value="_SensorReading" style="shape=process;whiteSpace=wrap;html=1;backgroundOutline=1;labelBackgroundColor=none;fontColor=#000000;" parent="1" vertex="1">
                    <mxGeometry x="1200" y="802" width="280" height="26" as="geometry"/>
                </mxCell>
                <mxCell id="491" style="edgeStyle=none;html=1;entryX=1;entryY=0.5;entryDx=0;entryDy=0;fontColor=#000000;" parent="1" source="493" target="452" edge="1">
                    <mxGeometry relative="1" as="geometry"/>
                </mxCell>
                <mxCell id="492" style="edgeStyle=none;html=1;fontColor=#000000;exitX=0.937;exitY=0.982;exitDx=0;exitDy=0;exitPerimeter=0;" parent="1" source="459" target="493" edge="1">
                    <mxGeometry relative="1" as="geometry"/>
                </mxCell>
                <mxCell id="493" value="Close" style="shape=process;whiteSpace=wrap;html=1;backgroundOutline=1;labelBackgroundColor=none;fillColor=#f8cecc;strokeColor=#b85450;" parent="1" vertex="1">
                    <mxGeometry x="1200" y="850" width="280" height="26" as="geometry"/>
                </mxCell>
                <mxCell id="494" value="" style="ellipse;whiteSpace=wrap;html=1;aspect=fixed;labelBackgroundColor=none;fontColor=#000000;" parent="1" vertex="1">
                    <mxGeometry x="1450" y="271.25" width="30" height="30" as="geometry"/>
                </mxCell>
                <mxCell id="495" value="" style="endArrow=classic;html=1;fontColor=#000000;entryX=0.5;entryY=1;entryDx=0;entryDy=0;startArrow=none;" parent="1" source="497" target="494" edge="1">
                    <mxGeometry width="50" height="50" relative="1" as="geometry">
                        <mxPoint x="1110" y="820" as="sourcePoint"/>
                        <mxPoint x="1370" y="370" as="targetPoint"/>
                        <Array as="points">
                            <mxPoint x="1110" y="340"/>
                            <mxPoint x="1465" y="340"/>
                        </Array>
                    </mxGeometry>
                </mxCell>
                <mxCell id="496" value="" style="endArrow=none;html=1;fontColor=#000000;entryX=0.5;entryY=1;entryDx=0;entryDy=0;" parent="1" target="497" edge="1">
                    <mxGeometry width="50" height="50" relative="1" as="geometry">
                        <mxPoint x="1110" y="820" as="sourcePoint"/>
                        <mxPoint x="1465" y="301.25" as="targetPoint"/>
                        <Array as="points"/>
                    </mxGeometry>
                </mxCell>
                <mxCell id="497" value="" style="ellipse;whiteSpace=wrap;html=1;aspect=fixed;labelBackgroundColor=none;fontColor=#000000;" parent="1" vertex="1">
                    <mxGeometry x="1100" y="363" width="20" height="20" as="geometry"/>
                </mxCell>
                <mxCell id="498" value="" style="ellipse;whiteSpace=wrap;html=1;aspect=fixed;labelBackgroundColor=none;fontColor=#000000;" parent="1" vertex="1">
                    <mxGeometry x="1100" y="394" width="20" height="20" as="geometry"/>
                </mxCell>
                <mxCell id="499" value="" style="ellipse;whiteSpace=wrap;html=1;aspect=fixed;labelBackgroundColor=none;fontColor=#000000;" parent="1" vertex="1">
                    <mxGeometry x="1100" y="423" width="20" height="20" as="geometry"/>
                </mxCell>
                <mxCell id="500" value="" style="ellipse;whiteSpace=wrap;html=1;aspect=fixed;labelBackgroundColor=none;fontColor=#000000;" parent="1" vertex="1">
                    <mxGeometry x="1100" y="454" width="20" height="20" as="geometry"/>
                </mxCell>
                <mxCell id="501" value="" style="ellipse;whiteSpace=wrap;html=1;aspect=fixed;labelBackgroundColor=none;fontColor=#000000;" parent="1" vertex="1">
                    <mxGeometry x="1100" y="485" width="20" height="20" as="geometry"/>
                </mxCell>
                <mxCell id="502" value="" style="ellipse;whiteSpace=wrap;html=1;aspect=fixed;labelBackgroundColor=none;fontColor=#000000;" parent="1" vertex="1">
                    <mxGeometry x="1100" y="514" width="20" height="20" as="geometry"/>
                </mxCell>
                <mxCell id="503" value="" style="ellipse;whiteSpace=wrap;html=1;aspect=fixed;labelBackgroundColor=none;fontColor=#000000;" parent="1" vertex="1">
                    <mxGeometry x="1100" y="547" width="20" height="20" as="geometry"/>
                </mxCell>
                <mxCell id="504" value="" style="ellipse;whiteSpace=wrap;html=1;aspect=fixed;labelBackgroundColor=none;fontColor=#000000;" parent="1" vertex="1">
                    <mxGeometry x="1100" y="578" width="20" height="20" as="geometry"/>
                </mxCell>
                <mxCell id="505" value="" style="ellipse;whiteSpace=wrap;html=1;aspect=fixed;labelBackgroundColor=none;fontColor=#000000;" parent="1" vertex="1">
                    <mxGeometry x="1100" y="611" width="20" height="20" as="geometry"/>
                </mxCell>
                <mxCell id="506" value="" style="ellipse;whiteSpace=wrap;html=1;aspect=fixed;labelBackgroundColor=none;fontColor=#000000;" parent="1" vertex="1">
                    <mxGeometry x="1100" y="643" width="20" height="20" as="geometry"/>
                </mxCell>
                <mxCell id="507" value="" style="ellipse;whiteSpace=wrap;html=1;aspect=fixed;labelBackgroundColor=none;fontColor=#000000;" parent="1" vertex="1">
                    <mxGeometry x="1100" y="676" width="20" height="20" as="geometry"/>
                </mxCell>
                <mxCell id="508" value="" style="ellipse;whiteSpace=wrap;html=1;aspect=fixed;labelBackgroundColor=none;fontColor=#000000;" parent="1" vertex="1">
                    <mxGeometry x="1100" y="707" width="20" height="20" as="geometry"/>
                </mxCell>
                <mxCell id="509" value="" style="ellipse;whiteSpace=wrap;html=1;aspect=fixed;labelBackgroundColor=none;fontColor=#000000;" parent="1" vertex="1">
                    <mxGeometry x="1100" y="739" width="20" height="20" as="geometry"/>
                </mxCell>
                <mxCell id="510" value="" style="ellipse;whiteSpace=wrap;html=1;aspect=fixed;labelBackgroundColor=none;fontColor=#000000;" parent="1" vertex="1">
                    <mxGeometry x="1100" y="775" width="20" height="20" as="geometry"/>
                </mxCell>
                <mxCell id="511" value="" style="ellipse;whiteSpace=wrap;html=1;aspect=fixed;labelBackgroundColor=none;fontColor=#000000;" parent="1" vertex="1">
                    <mxGeometry x="1100" y="804" width="20" height="20" as="geometry"/>
                </mxCell>
                <mxCell id="512" value="&lt;span style=&quot;background-color: rgb(255, 255, 51);&quot;&gt;&lt;b&gt;NOTE:&lt;/b&gt;&lt;/span&gt;&lt;br&gt;&lt;b&gt;class&amp;nbsp;&lt;/b&gt;&lt;span style=&quot;text-align: center;&quot;&gt;&lt;b&gt;Ui_MYAPP&lt;/b&gt;&lt;br&gt;&lt;div style=&quot;text-align: justify;&quot;&gt;&lt;span style=&quot;background-color: initial; white-space: pre;&quot;&gt;&#9;&lt;/span&gt;&lt;span style=&quot;background-color: initial;&quot;&gt;Đây là class chịu trách nhiệm cho các phần tử trên màng hình, bao gồm việc khai báo, điều chỉnh các thuộc tính, tập tin *.py chứa lớp này sẽ được thực thi đầu tiên để định nghĩ một đối tượng. Tập tin *.py này sẽ được Qt Creator tạo tự động dựa trên form.ui, vì thế không chỉnh sửa trong tập tin này.&lt;/span&gt;&lt;/div&gt;&lt;div style=&quot;text-align: justify;&quot;&gt;&lt;span style=&quot;background-color: initial;&quot;&gt;&lt;br&gt;&lt;/span&gt;&lt;/div&gt;&lt;div style=&quot;text-align: justify;&quot;&gt;&lt;span style=&quot;background-color: initial;&quot;&gt;&lt;b&gt;class MYAPP&lt;/b&gt;&lt;/span&gt;&lt;/div&gt;&lt;div style=&quot;text-align: justify;&quot;&gt;&lt;span style=&quot;white-space: pre;&quot;&gt;&#9;&lt;/span&gt;Trongg class MYAPP sẽ chứa một đối tượng Ui_MYAPP, ngoài ra còn định nghĩ thêm các hàm sẽ được gọi tới khi các nút nhấn được nhấn. Các nút nhấn sẽ kết nối với các hàm. Đối với các thay đổi về giao diện phát sinh mà không có trong form.ui thì nên được đặt bên trong hàm __init__() của class này.&lt;br&gt;&lt;/div&gt;&lt;div style=&quot;text-align: justify;&quot;&gt;&lt;br&gt;&lt;/div&gt;&lt;div style=&quot;text-align: justify;&quot;&gt;&lt;b&gt;Worker classes&lt;/b&gt;&lt;/div&gt;&lt;div style=&quot;text-align: justify;&quot;&gt;&lt;span style=&quot;white-space: pre;&quot;&gt;&#9;&lt;/span&gt;Đây là các class để thực hiện các công việc như lấy giá trị, gởi dữ liệu đến máy chủ, ... mà sẽ được thực hiện song song với giao diện để tránh việc làm giao diện bị &quot;not responding&quot;.&amp;nbsp;&lt;br&gt;&lt;/div&gt;&lt;/span&gt;" style="text;html=1;strokeColor=none;fillColor=none;align=left;verticalAlign=top;whiteSpace=wrap;rounded=0;" vertex="1" parent="1">
                    <mxGeometry x="520" y="22.5" width="280" height="357.5" as="geometry"/>
                </mxCell>
                <mxCell id="513" value="&lt;span style=&quot;background-color: rgb(255, 255, 51);&quot;&gt;&lt;b&gt;NOTE:&lt;/b&gt;&lt;/span&gt;&lt;br&gt;&lt;span style=&quot;text-align: center;&quot;&gt;&lt;span style=&quot;font-weight: bold; white-space: pre;&quot;&gt;&#9;&lt;/span&gt;Đây là tập tin để định nghĩ các hàm phụ trợ, cũng như mở rộng để giảm thiểu số dòng ở tập tin myapp.py chứa class MYAPP, điều này sẽ dễ dàng cho việc phát hiện lỗi và chỉnh sửa hơn về sau.&lt;br&gt;&lt;/span&gt;" style="text;html=1;strokeColor=none;fillColor=none;align=left;verticalAlign=top;whiteSpace=wrap;rounded=0;" vertex="1" parent="1">
                    <mxGeometry x="337" y="981" width="443" height="89" as="geometry"/>
                </mxCell>
                <mxCell id="514" value="" style="edgeStyle=none;html=1;fontColor=#000000;" edge="1" target="516" parent="1">
                    <mxGeometry relative="1" as="geometry">
                        <mxPoint x="2669.9716574340596" y="92.6774857192213" as="sourcePoint"/>
                    </mxGeometry>
                </mxCell>
                <mxCell id="515" value="" style="edgeStyle=none;html=1;fontColor=#000000;" edge="1" source="516" target="517" parent="1">
                    <mxGeometry relative="1" as="geometry"/>
                </mxCell>
                <mxCell id="516" value="CameraStreaming" style="shape=process;whiteSpace=wrap;html=1;backgroundOutline=1;labelBackgroundColor=none;fontColor=#000000;" vertex="1" parent="1">
                    <mxGeometry x="2700" y="77" width="120" height="30" as="geometry"/>
                </mxCell>
                <mxCell id="517" value="Kết thúc" style="ellipse;whiteSpace=wrap;html=1;labelBackgroundColor=none;fontColor=#000000;" vertex="1" parent="1">
                    <mxGeometry x="2870" y="74" width="80" height="36" as="geometry"/>
                </mxCell>
                <mxCell id="518" value="&lt;span style=&quot;text-align: center;&quot;&gt;Camera&lt;/span&gt;&lt;span style=&quot;text-align: center;&quot;&gt;Streaming&lt;/span&gt;" style="text;whiteSpace=wrap;html=1;fontColor=#000000;" vertex="1" parent="1">
                    <mxGeometry x="2600" y="117.5" width="120" height="40" as="geometry"/>
                </mxCell>
                <mxCell id="519" value="" style="edgeStyle=none;html=1;fontColor=#000000;" edge="1" source="520" target="521" parent="1">
                    <mxGeometry relative="1" as="geometry"/>
                </mxCell>
                <mxCell id="520" value="Bắt đầu" style="ellipse;whiteSpace=wrap;html=1;labelBackgroundColor=none;fontColor=#000000;" vertex="1" parent="1">
                    <mxGeometry x="2600" y="146" width="80" height="36" as="geometry"/>
                </mxCell>
                <mxCell id="521" value="Tạo WorkerThread" style="shape=hexagon;perimeter=hexagonPerimeter2;whiteSpace=wrap;html=1;fixedSize=1;labelBackgroundColor=none;fontColor=#000000;" vertex="1" parent="1">
                    <mxGeometry x="2700" y="151" width="140" height="26" as="geometry"/>
                </mxCell>
                <mxCell id="522" value="" style="endArrow=classic;html=1;fontColor=#000000;exitX=1;exitY=0.5;exitDx=0;exitDy=0;" edge="1" source="521" parent="1">
                    <mxGeometry width="50" height="50" relative="1" as="geometry">
                        <mxPoint x="2890" y="190" as="sourcePoint"/>
                        <mxPoint x="2900" y="164" as="targetPoint"/>
                    </mxGeometry>
                </mxCell>
                <mxCell id="523" value="" style="edgeStyle=none;html=1;fontColor=#000000;" edge="1" source="524" target="526" parent="1">
                    <mxGeometry relative="1" as="geometry"/>
                </mxCell>
                <mxCell id="524" value="UpdateData" style="shape=process;whiteSpace=wrap;html=1;backgroundOutline=1;labelBackgroundColor=none;fontColor=#000000;" vertex="1" parent="1">
                    <mxGeometry x="2900" y="149" width="120" height="30" as="geometry"/>
                </mxCell>
                <mxCell id="525" value="" style="edgeStyle=none;html=1;fontColor=#000000;" edge="1" source="526" target="527" parent="1">
                    <mxGeometry relative="1" as="geometry"/>
                </mxCell>
                <mxCell id="526" value="Gởi tín hiệu finished" style="rounded=0;whiteSpace=wrap;html=1;labelBackgroundColor=none;fontColor=#000000;" vertex="1" parent="1">
                    <mxGeometry x="3060" y="149" width="120" height="30" as="geometry"/>
                </mxCell>
                <mxCell id="527" value="Kết thúc" style="ellipse;whiteSpace=wrap;html=1;labelBackgroundColor=none;fontColor=#000000;" vertex="1" parent="1">
                    <mxGeometry x="3220" y="146" width="80" height="36" as="geometry"/>
                </mxCell>
                <mxCell id="528" value="&lt;span style=&quot;color: rgb(0, 0, 0); font-family: Helvetica; font-size: 12px; font-style: normal; font-variant-ligatures: normal; font-variant-caps: normal; font-weight: 400; letter-spacing: normal; orphans: 2; text-align: center; text-indent: 0px; text-transform: none; widows: 2; word-spacing: 0px; -webkit-text-stroke-width: 0px; background-color: rgb(251, 251, 251); text-decoration-thickness: initial; text-decoration-style: initial; text-decoration-color: initial; float: none; display: inline !important;&quot;&gt;CameraStreaming.UpdateData&lt;/span&gt;" style="text;whiteSpace=wrap;html=1;fontColor=#000000;" vertex="1" parent="1">
                    <mxGeometry x="2600" y="182" width="180" height="40" as="geometry"/>
                </mxCell>
                <mxCell id="529" style="edgeStyle=none;html=1;entryX=0.5;entryY=0;entryDx=0;entryDy=0;fontColor=#000000;" edge="1" source="530" target="533" parent="1">
                    <mxGeometry relative="1" as="geometry">
                        <Array as="points">
                            <mxPoint x="2860" y="226"/>
                        </Array>
                    </mxGeometry>
                </mxCell>
                <mxCell id="530" value="Bắt đầu" style="ellipse;whiteSpace=wrap;html=1;labelBackgroundColor=none;fontColor=#000000;" vertex="1" parent="1">
                    <mxGeometry x="2600" y="208" width="80" height="36" as="geometry"/>
                </mxCell>
                <mxCell id="531" style="edgeStyle=none;html=1;entryX=0;entryY=0.5;entryDx=0;entryDy=0;fontColor=#000000;" edge="1" source="533" target="535" parent="1">
                    <mxGeometry relative="1" as="geometry"/>
                </mxCell>
                <mxCell id="532" value="" style="edgeStyle=none;html=1;fontColor=#000000;" edge="1" source="533" target="539" parent="1">
                    <mxGeometry relative="1" as="geometry"/>
                </mxCell>
                <mxCell id="533" value="camera_streaming_val == True" style="rhombus;whiteSpace=wrap;html=1;labelBackgroundColor=none;fontColor=#000000;" vertex="1" parent="1">
                    <mxGeometry x="2760" y="260" width="200" height="60" as="geometry"/>
                </mxCell>
                <mxCell id="534" value="" style="edgeStyle=none;html=1;fontColor=#000000;" edge="1" source="535" target="536" parent="1">
                    <mxGeometry relative="1" as="geometry"/>
                </mxCell>
                <mxCell id="535" value="Gởi tín hiệu finished" style="rounded=0;whiteSpace=wrap;html=1;labelBackgroundColor=none;fontColor=#000000;" vertex="1" parent="1">
                    <mxGeometry x="3060" y="275" width="120" height="30" as="geometry"/>
                </mxCell>
                <mxCell id="536" value="Kết thúc" style="ellipse;whiteSpace=wrap;html=1;labelBackgroundColor=none;fontColor=#000000;" vertex="1" parent="1">
                    <mxGeometry x="3220" y="272" width="80" height="36" as="geometry"/>
                </mxCell>
                <mxCell id="537" value="False" style="text;html=1;strokeColor=none;fillColor=none;align=center;verticalAlign=middle;whiteSpace=wrap;rounded=0;labelBackgroundColor=none;fontColor=#000000;" vertex="1" parent="1">
                    <mxGeometry x="2960" y="269" width="60" height="30" as="geometry"/>
                </mxCell>
                <mxCell id="538" style="edgeStyle=none;html=1;entryX=0.5;entryY=0;entryDx=0;entryDy=0;fontColor=#000000;" edge="1" source="539" target="542" parent="1">
                    <mxGeometry relative="1" as="geometry"/>
                </mxCell>
                <mxCell id="539" value="Đọc dữ liệu từ camera và lưu vào img.jpg" style="rounded=0;whiteSpace=wrap;html=1;labelBackgroundColor=none;fontColor=#000000;" vertex="1" parent="1">
                    <mxGeometry x="2744.63" y="350" width="230.37" height="30" as="geometry"/>
                </mxCell>
                <mxCell id="540" value="" style="ellipse;whiteSpace=wrap;html=1;aspect=fixed;labelBackgroundColor=none;fontColor=#000000;" vertex="1" parent="1">
                    <mxGeometry x="2719.5" y="215" width="21" height="21" as="geometry"/>
                </mxCell>
                <mxCell id="541" value="&lt;div style=&quot;text-align: center;&quot;&gt;&lt;span style=&quot;background-color: initial;&quot;&gt;_CameraStreaming&lt;/span&gt;&lt;/div&gt;" style="text;whiteSpace=wrap;html=1;fontColor=#000000;" vertex="1" parent="1">
                    <mxGeometry x="2600" y="40" width="120" height="40" as="geometry"/>
                </mxCell>
                <mxCell id="542" value="Đọc file img.jpg ở dạng bitmap và cập nhật UI." style="rounded=0;whiteSpace=wrap;html=1;labelBackgroundColor=none;fontColor=#000000;" vertex="1" parent="1">
                    <mxGeometry x="2734.63" y="415" width="250.37" height="30" as="geometry"/>
                </mxCell>
                <mxCell id="543" value="" style="endArrow=classic;html=1;fontColor=#000000;exitX=0;exitY=0.5;exitDx=0;exitDy=0;entryX=0.5;entryY=1;entryDx=0;entryDy=0;" edge="1" source="542" target="540" parent="1">
                    <mxGeometry width="50" height="50" relative="1" as="geometry">
                        <mxPoint x="2940" y="320" as="sourcePoint"/>
                        <mxPoint x="2990" y="270" as="targetPoint"/>
                        <Array as="points">
                            <mxPoint x="2730" y="430"/>
                        </Array>
                    </mxGeometry>
                </mxCell>
                <mxCell id="544" value="&lt;font color=&quot;#000000&quot;&gt;&lt;b&gt;Mô tả hoạt động của chương trình con:&lt;/b&gt;&lt;/font&gt;" style="text;html=1;strokeColor=none;fillColor=none;align=left;verticalAlign=middle;whiteSpace=wrap;rounded=0;labelBackgroundColor=none;fontColor=#FFFFFF;movable=1;resizable=1;rotatable=1;deletable=1;editable=1;connectable=1;" vertex="1" parent="1">
                    <mxGeometry x="2568" y="10" width="560" height="30" as="geometry"/>
                </mxCell>
                <mxCell id="545" value="Bắt đầu" style="ellipse;whiteSpace=wrap;html=1;labelBackgroundColor=none;fontColor=#000000;" vertex="1" parent="1">
                    <mxGeometry x="2601" y="75" width="80" height="36" as="geometry"/>
                </mxCell>
            </root>
        </mxGraphModel>
    </diagram>
</mxfile>